<svg width="565" height="156" viewBox="0 0 565 156" fill="none" xmlns="http://www.w3.org/2000/svg">
<path fill-rule="evenodd" clip-rule="evenodd" d="M546.979 411.693C525.168 477.362 456.789 517.915 400.669 566.274C341.159 617.554 298.512 697.424 209.977 702.09C121.5 706.752 46.5326 640.104 -21.6213 588.528C-76.2464 547.19 -96.2679 488.563 -138.425 438.435C-191.382 375.465 -299.164 331.752 -299.818 257.73C-300.467 184.336 -206.984 142.423 -141.444 96.6277C-79.327 53.2241 -16.5034 -0.225284 67.8531 0.823989C149.913 1.84469 207.976 70.1959 283.236 101.91C364.194 136.026 472.035 131.591 524.553 193.276C578.286 256.389 570.393 341.196 546.979 411.693Z" fill="url(#paint0_linear_3591_40378)"/>
<defs>
<linearGradient id="paint0_linear_3591_40378" x1="516.915" y1="198.336" x2="-69.2174" y2="66.8938" gradientUnits="userSpaceOnUse">
<stop stop-color="#FDB537"/>
<stop offset="1" stop-color="#FFD662"/>
</linearGradient>
</defs>
</svg>
