<svg width="602" height="185" viewBox="0 0 602 185" fill="none" xmlns="http://www.w3.org/2000/svg">
<path fill-rule="evenodd" clip-rule="evenodd" d="M892.307 -360.68C916.486 -279.505 866.919 -200.337 842.041 -120.592C818.489 -45.0981 806.906 37.0429 751.28 91.3723C692.582 148.703 612.731 190.484 530.959 183.24C452.176 176.262 406.977 86.932 333.92 54.404C232.486 9.24175 87.7052 51.9728 25.0367 -42.0151C-35.4372 -132.712 32.3682 -252.965 59.3002 -357.46C86.4339 -462.738 101.601 -578.98 181.581 -649.399C263.011 -721.095 379.465 -755.279 486.324 -733.436C585.4 -713.184 641.217 -609.632 717.135 -539.927C780.116 -482.101 867.707 -443.268 892.307 -360.68Z" fill="url(#paint0_linear_3591_40379)"/>
<defs>
<linearGradient id="paint0_linear_3591_40379" x1="463.235" y1="-768.785" x2="922.679" y2="-349.363" gradientUnits="userSpaceOnUse">
<stop stop-color="#FDB537"/>
<stop offset="1" stop-color="#FFD662"/>
</linearGradient>
</defs>
</svg>
