<svg width="100" height="100" viewBox="0 0 100 100" fill="none" xmlns="http://www.w3.org/2000/svg">
<path d="M89.8594 0.203003H10.125C4.58489 0.203003 0.09375 4.69415 0.09375 10.2343V89.9686C0.09375 95.5087 4.58489 99.9999 10.125 99.9999H89.8594C95.3995 99.9999 99.8906 95.5087 99.8906 89.9686V10.2343C99.8906 4.69415 95.3995 0.203003 89.8594 0.203003Z" fill="white"/>
<path d="M42.5468 38.5315H48.7968C49.2053 38.53 49.6034 38.6598 49.9326 38.9017C50.2617 39.1437 50.5044 39.4849 50.625 39.8752L58.9374 67.5002C59.054 67.8947 59.295 68.2408 59.6245 68.487C59.954 68.7333 60.3543 68.8663 60.7656 68.8663C61.1769 68.8663 61.5772 68.7333 61.9067 68.487C62.2361 68.2408 62.4772 67.8947 62.5937 67.5002L70.9218 39.8752C71.0423 39.4849 71.2851 39.1437 71.6142 38.9017C71.9433 38.6598 72.3415 38.53 72.7499 38.5315H78.9999C79.3006 38.5287 79.5976 38.5976 79.8663 38.7326C80.135 38.8676 80.3676 39.0648 80.5448 39.3077C80.7221 39.5506 80.8388 39.8323 80.8853 40.1294C80.9319 40.4265 80.9069 40.7303 80.8124 41.0158L66.6249 85.1096C66.5025 85.4944 66.2609 85.8304 65.9352 86.0691C65.6094 86.3078 65.2163 86.4368 64.8124 86.4377H56.7187C56.3139 86.433 55.9206 86.3028 55.5931 86.0648C55.2656 85.8269 55.0201 85.4931 54.8906 85.1096L40.7187 41.0158C40.6275 40.7292 40.6054 40.425 40.6542 40.1281C40.7031 39.8313 40.8215 39.5502 40.9998 39.3079C41.1781 39.0656 41.4112 38.8689 41.6801 38.7339C41.949 38.599 42.246 38.5296 42.5468 38.5315V38.5315Z" fill="#2E4DA7"/>
<path d="M82.3747 53.8125H83.7184C84.4146 53.8125 85.0823 54.0891 85.5746 54.5813C86.0669 55.0736 86.3434 55.7413 86.3434 56.4375V57.8125C86.3393 58.506 86.0609 59.1697 85.5691 59.6586C85.0773 60.1475 84.4119 60.4219 83.7184 60.4219H82.3747C81.6826 60.4219 81.0189 60.147 80.5296 59.6576C80.0402 59.1683 79.7653 58.5046 79.7653 57.8125V56.4688C79.7612 56.1227 79.8255 55.7793 79.9546 55.4582C80.0837 55.1371 80.275 54.8448 80.5175 54.5979C80.76 54.351 81.049 54.1546 81.3677 54.0198C81.6864 53.885 82.0286 53.8145 82.3747 53.8125V53.8125ZM82.3747 62.5313H83.7184C84.4146 62.5313 85.0823 62.8078 85.5746 63.3001C86.0669 63.7924 86.3434 64.4601 86.3434 65.1563V83.9063C86.3393 84.5997 86.0609 85.2634 85.5691 85.7523C85.0773 86.2412 84.4119 86.5157 83.7184 86.5156H82.3747C81.6826 86.5156 81.0189 86.2407 80.5296 85.7514C80.0402 85.262 79.7653 84.5983 79.7653 83.9063V65.1563C79.7612 64.8102 79.8255 64.4668 79.9546 64.1457C80.0837 63.8246 80.275 63.5323 80.5175 63.2854C80.76 63.0385 81.049 62.8421 81.3677 62.7073C81.6864 62.5725 82.0286 62.502 82.3747 62.5V62.5313Z" fill="#2E4DA7"/>
</svg>
