<svg width="100" height="100" viewBox="0 0 100 100" fill="none" xmlns="http://www.w3.org/2000/svg">
<g clip-path="url(#clip0_3281_40083)">
<path d="M90.042 0.203003H10.1454C4.59403 0.203003 0.09375 4.70329 0.09375 10.2547V90.1513C0.09375 95.7027 4.59403 100.203 10.1454 100.203H90.042C95.5934 100.203 100.094 95.7027 100.094 90.1513V10.2547C100.094 4.70329 95.5934 0.203003 90.042 0.203003Z" fill="#2E4DA7"/>
<path d="M42.5468 38.5316H48.7968C49.2053 38.5301 49.6034 38.6599 49.9326 38.9019C50.2617 39.1438 50.5044 39.485 50.6249 39.8753L58.9374 67.5003C59.054 67.8948 59.295 68.241 59.6245 68.4872C59.954 68.7334 60.3542 68.8664 60.7656 68.8664C61.1769 68.8664 61.5772 68.7334 61.9067 68.4872C62.2361 68.241 62.4771 67.8948 62.5937 67.5003L70.9218 39.8753C71.0423 39.485 71.2851 39.1438 71.6142 38.9019C71.9433 38.6599 72.3415 38.5301 72.7499 38.5316H78.9999C79.3006 38.5288 79.5976 38.5978 79.8663 38.7328C80.135 38.8678 80.3676 39.0649 80.5448 39.3078C80.7221 39.5507 80.8388 39.8324 80.8853 40.1295C80.9319 40.4266 80.9069 40.7305 80.8124 41.016L66.6249 85.1097C66.5025 85.4945 66.2609 85.8305 65.9352 86.0692C65.6094 86.3079 65.2163 86.437 64.8124 86.4378H56.7187C56.3139 86.4332 55.9206 86.3029 55.5931 86.065C55.2656 85.827 55.0201 85.4932 54.8906 85.1097L40.7187 41.016C40.6275 40.7293 40.6054 40.4251 40.6542 40.1282C40.7031 39.8314 40.8215 39.5503 40.9998 39.308C41.1781 39.0657 41.4112 38.869 41.6801 38.7341C41.949 38.5991 42.246 38.5297 42.5468 38.5316V38.5316Z" fill="white"/>
<path d="M82.3747 53.8126H83.7185C84.4146 53.8126 85.0823 54.0892 85.5746 54.5815C86.0669 55.0738 86.3434 55.7414 86.3434 56.4376V57.8126C86.3393 58.5061 86.0609 59.1698 85.5691 59.6587C85.0773 60.1476 84.4119 60.422 83.7185 60.422H82.3747C81.6827 60.422 81.0189 60.1471 80.5296 59.6577C80.0402 59.1684 79.7653 58.5047 79.7653 57.8126V56.4689C79.7612 56.1228 79.8255 55.7794 79.9546 55.4583C80.0837 55.1373 80.275 54.8449 80.5175 54.598C80.76 54.3512 81.049 54.1547 81.3677 54.0199C81.6864 53.8851 82.0287 53.8147 82.3747 53.8126V53.8126ZM82.3747 62.5314H83.7185C84.4146 62.5314 85.0823 62.8079 85.5746 63.3002C86.0669 63.7925 86.3434 64.4602 86.3434 65.1564V83.9064C86.3393 84.5999 86.0609 85.2635 85.5691 85.7524C85.0773 86.2413 84.4119 86.5158 83.7185 86.5157H82.3747C81.6827 86.5157 81.0189 86.2408 80.5296 85.7515C80.0402 85.2621 79.7653 84.5984 79.7653 83.9064V65.1564C79.7612 64.8103 79.8255 64.4669 79.9546 64.1458C80.0837 63.8248 80.275 63.5324 80.5175 63.2855C80.76 63.0387 81.049 62.8422 81.3677 62.7074C81.6864 62.5726 82.0287 62.5022 82.3747 62.5001V62.5314Z" fill="#FDFEFE"/>
</g>
<defs>
<clipPath id="clip0_3281_40083">
<rect width="100" height="100" fill="white"/>
</clipPath>
</defs>
</svg>
